<svg xmlns="http://www.w3.org/2000/svg" viewBox="0 0 240 55"><defs><style>.cls-1,.cls-2{fill:#fff;}.cls-1{fill-rule:evenodd;}</style></defs><title>logo_.ductelsvg</title><g id="banner3"><path class="cls-1" d="M15.45,22.15c0-4.22,3.14-8.35,7.44-8.35a7.63,7.63,0,0,1,5.82,2.35c2.18,2.74,2.17,3.43,2.17,6.72,0,5.33-6.83,11.36-13,5.22a8.68,8.68,0,0,1-2.4-5.94Zm15.43-9.63c-.56-.14-1-.68-1.77-1.31C23,6.16,13.59,9.2,10.42,16c-3,6.45-.64,14.8,5.81,18A12.33,12.33,0,0,0,29.2,33c1.39-1,.76-.92,1.68-1.41v2.55h6.53V1.45H30.88Z"/><path class="cls-1" d="M130.53,12.71A9.89,9.89,0,0,1,136,14a5.46,5.46,0,0,1,2.39,4.32H123.27c1-2.06,1.61-3.93,4.56-5.06a9.72,9.72,0,0,1,2.7-.56Zm-14.88,8.71c0,3,.22,3.78,1.75,6.6a13.94,13.94,0,0,0,5.22,5.31,12.79,12.79,0,0,0,2.4,1.05c4.54,1.6,10.63,1.48,14.81-1.3,1.93-1.29,4.33-3.95,4.86-6.22-1.09,0-2.18,0-3.27,0-1.34,0-2.16.19-3.27.19-.35,1.52-2.34,3.28-4,3.8a8.79,8.79,0,0,1-11.24-8h22.51c1.61,0,.16-7-2.86-10-2.34-2.32-6.37-4.49-10-4.49-5.12,0-8.88.2-12.75,3.59A13.51,13.51,0,0,0,115.65,21.42Z"/><path class="cls-1" d="M61.74,25.23c0,1.82-4.76,5.27-6.9,5.27s-4.14-.3-5.5-1.77a7.78,7.78,0,0,1-1.76-4.41V9.8H41.22v16a9.68,9.68,0,0,0,1.24,3.48c.33.54.5,1,.86,1.5a9,9,0,0,0,.57.7,9.46,9.46,0,0,0,8.23,3.94c6.22,0,8.42-4.22,9.62-4.54v3.27h6.53V9.62H61.74Z"/><path class="cls-1" d="M71.54,20.87c0,4.23.81,7.57,3.85,10.67a15.37,15.37,0,0,0,9.22,3.86c4,0,6.67-.18,10.11-2.78a9.14,9.14,0,0,0,2.7-2.56,18.64,18.64,0,0,0,1.89-3.38H93a4.44,4.44,0,0,1-1,1.51C86.28,34.08,77.71,29.57,77.71,22c0-11.11,12.8-12.31,15.05-4.16.48,1.72,2.38.91,3.82.89.84,0,1.7,0,2.55,0,.48-2.06-2.53-6.29-3.78-7.29-5.68-4.56-15.19-4.36-19.77.25A14,14,0,0,0,71.54,20.87Z"/><path class="cls-1" d="M103.3,10.16c-1.34,0-3.13-.56-3.64.35-.32.58,0,3.06,0,4.19,1.33.64,2,.18,3.63.18V31a4.3,4.3,0,0,0,4.36,4.36h7.26c1.14,0,.6-2.79.51-4-2.05,0-4.77.37-5.47-1.22-.8-1.82-.48-12.74-.48-15.31h6.35V10.16h-6.35V5.45H103.3Z"/><path class="cls-1" d="M49.94,9.8c1.74,0,3.53,0,5.27,0,1.52,0,1.75-1,3-2.41.86-1,1.89-1.75,2.72-2.73a20.25,20.25,0,0,0,2.41-3H55.93a8.07,8.07,0,0,1-1.43,2l-3.11,4A8.91,8.91,0,0,0,49.94,9.8Z"/><path class="cls-1" d="M162.12,54.82h1.08v-6c1.23,1.4,2.79,6,3.82,6h.9V47c-1.65,0-1.11.5-1.08,2.35,0,1.08,0,2.2,0,3.28C165.6,51.22,164.28,47,163.2,47h-1.08Z"/><path class="cls-1" d="M128,53.91h-.91V48.1c2.1,0,3.63.17,3.63,2.91a2.61,2.61,0,0,1-2.72,2.9Zm-2.18-6.17v6.35c0,1.79,6,.8,6-2V49.74c0-1.53-1.86-2.73-3.45-2.73C127.08,47,125.81,46.76,125.81,47.74Z"/><path class="cls-1" d="M112.38,50.46h-.73V48.1h.55c.91,0,.81.17,1.63.18,0,1.31.64,2.18-1.45,2.18Zm-1.45,4.36h.72V51.37c1.6,0,1.75.42,2.49,2.42.4,1.09.16,1,1.51,1a4.88,4.88,0,0,0-1.07-2.93c-.39-.52-.38-.19-.57-.88,1.77-.48,2-4-1.27-4-2.63,0-2.28-.63-2.54,3.81a12.14,12.14,0,0,0,.13,2.24C110.43,53.92,110.11,54.82,110.93,54.82Z"/><path class="cls-1" d="M61.19,50.46h-.91V48.1h.91c1,0,1.58.28,1.6,1.11s-.83,1.25-1.6,1.25Zm-2-3.27v7.63h1.09V51.37c1,0,1.69.23,2.06,1a14.88,14.88,0,0,1,.85,2.42h1.27a7.46,7.46,0,0,0-1.18-3c-.42-.63-.39-.17-.45-1,2-.54,1.34-3.82-1.09-3.82A8.15,8.15,0,0,0,59.19,47.19Z"/><path class="cls-1" d="M155.94,50.46h-.72V48.1a11.16,11.16,0,0,1,2.18.18c0,.64.86,2.18-1.46,2.18Zm-1.81-2.9v7.26h1.09V51.37a1.9,1.9,0,0,1,2.05,1.21c.82,1.8.09,2.24,1.94,2.24A7.19,7.19,0,0,0,157.58,51c2.5-1.33,1-4-.91-4S154.13,46.77,154.13,47.56Z"/><path class="cls-1" d="M48.85,48.65l1.09,3.26H47.58l1.27-3.26ZM45.4,54.82h1.09A2.41,2.41,0,0,0,47,53c5-1.15,3.07,1.82,4.36,1.82h.73c0-1.22-1.52-4.73-2-6.15-.43-1.22-.24-1.66-1.43-1.66-1,0-2,4.15-2.6,5.58A9.11,9.11,0,0,0,45.4,54.82Z"/><path class="cls-1" d="M148,48.66c.75.89,1,2.48,1.42,3.25h-2.54L148,48.66Zm-3.12,6.16c1.4,0,1.09,0,1.38-.8a2.65,2.65,0,0,0,.25-1.2h3.09c.23,1,.52,2,1.45,2,1.08,0-.09-1.83-.79-3.93C149.62,49,149.3,47,148,47c-.75,0-1.42,2.51-1.8,3.66A19.93,19.93,0,0,0,144.87,54.82Z"/><path class="cls-1" d="M101.31,52.64c0,3.07,5.81,3.32,5.81-.36V47c-1.67,0-1,.3-1.09,4-.12,4.44-3.63,3.28-3.63.72,0-3.27.81-4.72-1.09-4.72Z"/><path class="cls-1" d="M87.51,50.83c0,.82-1.6,2.31-2,4h1.28c.27-1.17,1.2-1.83,1.45-2.91.8.54,1.33,2,1.81,2.91h1.27c-.27-1.16-2-3.44-2.06-3.85-.08-.77,1.76-2.45,1.88-4H90.05a20.68,20.68,0,0,0-1.45,2.91h-.36C88,49,87.07,47,86.06,47,84.49,47,87.51,49.82,87.51,50.83Z"/><path class="cls-1" d="M118.55,47v7.26c0,.53.57.71,1.33.73h.44c.9,0,1.94-.18,2.59-.18v-.91h-3.27V51.19h2.72v-.91h-2.72V48.1c1,0,3.27.56,3.27-.54S120,47,118.55,47Z"/><path class="cls-1" d="M78.8,47.56v6.71c0,.53.57.71,1.32.73h.45c.9,0,1.93-.18,2.58-.18v-.91H79.89V51.19h2.72v-.91H79.89V48.1c1,0,3.26.56,3.26-.54,0-.8-1.29-.78-2.09-.66C80.11,47.05,78.8,46.74,78.8,47.56Z"/><path class="cls-1" d="M171,48.65c0,3.21,2.26,2,3.22,3.51.37.58,0,.88-.13,1.57-3.21.47-1.25-.32-3.27-.36,0,1.59.81,1.63,2.22,1.63h.14c1.74,0,2.36-1.15,2.36-2.72,0-1.16-.92-1.47-1.76-1.88a7.36,7.36,0,0,1-1.19-.63.84.84,0,0,1-.39-.52c-.21-.69-.05-.41.07-.6.38-1.41,1.86-.21,2.9-.18,0-1.56-.6-1.46-2.36-1.46A1.74,1.74,0,0,0,171,48.65Z"/><path class="cls-1" d="M140.51,52.82v2c1.64,0,1.09-.32,1.09-1.64,0-2.65,2-4.12,2.18-6.17h-1.09L141,50.5c-.38-1.34-1.25-2.31-1.52-3.49h-1.28C138.62,49,140.51,50.89,140.51,52.82Z"/><path class="cls-1" d="M70.63,47.56c0,.77.7.54,2.36.54v6.72c1.24,0,1.48-.48,1.26-3.08-.1-1.17-.17-2.2-.17-3.64h2.18V47H70.63Z"/><path class="cls-1" d="M92.78,47.56c.5.75.49.54,2.54.54v6.72h1.09V48.1h2.36V47H93.5C93.05,47,92.93,47.27,92.78,47.56Z"/><rect class="cls-2" x="54.84" y="47.01" width="0.91" height="7.81"/><path class="cls-1" d="M195.32,23.75c-1.08,4.4-4.9,9.57-9.64,11.07a6.12,6.12,0,0,1-7.11-2.44c-1.66-2.56-1.86-5.12-1.75-8.65l18.5,0ZM214.79,0c-5.44.44-9.71,2.2-13.83,8.35-7.72,0-12.72-1.12-17.71,2.62a12.93,12.93,0,0,0-1.13.87A23.06,23.06,0,0,0,176.9,21c-.89,3.54-1.16,7.08.4,10.33A5.92,5.92,0,0,0,179,33.63a6.41,6.41,0,0,0,6.14,1.87,27.94,27.94,0,0,1,4-.1c-.19-.56.4-.47,1-.86,8.38-5.12,6.75-14,11.71-22.95C207.75.91,213.08,2.91,225.28,3c1.07,0,3.74-.34,4.28.29-.82.77-15-.12-17.62.29C202.69,5,199.82,18,197.52,25.05c-2,6.25-3.39,7.25-7.83,10.35h3.19c-.13-.62.35-.62.89-1,7.27-5.43,5.57-12,9.94-20.91,1.8-3.66,4.48-6.91,8.72-7.81,3.75-.79,11.89-.37,16.12-.37.44.19.28-.29.31.48.25-.23.28-.33.45-.83l1.08-3.27c.5-1.29.83-1.6-.25-1.66H214.79ZM191.52,23.27c.16-.22.09,0,.27-.5l.59-1.77c2.06-5.28,3.84-4.12,3.62-5.69a12.06,12.06,0,0,0-3.07,3.17A18.43,18.43,0,0,0,191.55,22c-.57,1.79-.21,1,0,1.28Zm-3.08,0c-.59-1.32,1.61-5.24,2.3-6.26a13.19,13.19,0,0,1,2-2.32c.49-.41.76-.57,1.24-.94a5.21,5.21,0,0,1,.66-.45c.9-.46.55-.13.73,0-.05.39-1.7,1.23-2.24,1.82-1.35,1.46-2.78,2.77-3.61,5.11-.23.66-.6,2.73-1.11,3.08Zm-3.27,0c-.6-1.46,2.27-6.7,3.08-7.46,1-1,5.07-4.78,6.35-4.17-.27.55-1.12.7-1.66,1.05a26.78,26.78,0,0,0-4.35,3.46,17,17,0,0,0-2.7,5.27c-.41,1.44-.15,1.51-.72,1.85Zm-3.09,0c-.16-.27-.25.23-.11-.68a21.81,21.81,0,0,1,1.59-3.87A18,18,0,0,1,186,14.82c1-1,6.41-5.47,7.62-4.32-.61.32-1.49.59-2.13.92a20.66,20.66,0,0,0-1.95,1.13,25.72,25.72,0,0,0-3.29,2.7,26.64,26.64,0,0,0-3.3,6l-.55,1.62c-.21.43,0,.18-.33.45Zm-2.9,0c-.15-.2-.45.16.06-1.42.13-.42.24-.86.36-1.27a16.51,16.51,0,0,1,1-2.47,14.86,14.86,0,0,1,2.87-4A16.39,16.39,0,0,1,187.25,11c.92-.55,3.88-1.93,5-1.5-1.62.95-5.13,1.13-8.44,4.95-4.17,4.8-3.1,5.64-4.48,8.59,0,0-.06.15-.07.13s0,.08-.08.12Zm17.64-4.89a14.55,14.55,0,0,0-1.24-5.93c-1-2.27-2.14-2.59-3.38-3.56h8.28c-.46,1.52-1.44,3-2,4.61A44.29,44.29,0,0,1,196.82,18.38Z"/><path class="cls-1" d="M196.22,35.4a10.77,10.77,0,0,0,2.75-.19c.21-.63.28-.38.82-.8,4.61-3.66,5-11.82,7.67-17.56,1.44-3.15,2.29-5.69,6.72-6.73,2.87-.67,9.82-.3,13.16-.3-.11.84-.27.5-2.78.5-6.47,0-12.66-1.19-15.53,4.29a67,67,0,0,0-4.37,12.33c-1.28,4.61-2.57,5.8-5,8.27.94,0,1.47-.34,2.4-.36l-.18-.53c1-.49,2.16-2.06,2.93-3.06a11.68,11.68,0,0,0,1.71-4.11c4.59-16.35,4.08-15.06,20.11-15.06v.51c-10.28,0-13.81-1.66-17.12,6.12-2.47,5.81-2.09,11.15-5.73,14.59a8.9,8.9,0,0,0-1.3,1.36c2.18-.22,4.89-2.62,6-4.78,3.49-6.52,2.4-13.11,7-14.94,2.27-.89,7.6-.43,10.64-.43.11-1.31,1.83-5,2-6.56-4.26,0-10.52-.36-14.53.23s-6.43,3.65-7.75,7.12a100.1,100.1,0,0,0-3.55,11.35,15.68,15.68,0,0,1-3.94,7.12C197.77,34.4,196.92,34.77,196.22,35.4Z"/><path class="cls-1" d="M193.31,35.4h2.42c-.15-.56.24-.54.88-.9,2.65-1.5,4.5-5.11,5.32-7.93,1.21-4.17,3.38-13.42,6.34-16.17a11.73,11.73,0,0,1,5-2.64c3.57-.7,10.83-.3,14.77-.3.27.29.12-.35.2.5,0,0,0-.13.06-.11l.36-.87a2.68,2.68,0,0,0,.23-1.22c-11.62.64-19.28-3-24.71,7.94-4.21,8.49-2.8,14.26-8.62,19.9C194.78,34.33,194.05,34.77,193.31,35.4Z"/><rect class="cls-2" x="148.44" y="1.45" width="6.78" height="33.66"/></g></svg>